<?xml version="1.0" encoding="UTF-8"?>
<svg xmlns="http://www.w3.org/2000/svg" xmlns:xlink="http://www.w3.org/1999/xlink" width="49px" height="49px" viewBox="0 0 49 49" version="1.1">
<g id="surface1">
<path style=" stroke:none;fill-rule:evenodd;fill:rgb(100%,17.647059%,12.54902%);fill-opacity:1;" d="M 35.066406 15.558594 C 35.074219 15.601562 35.078125 15.644531 35.078125 15.691406 L 35.078125 22.703125 C 35.078125 22.886719 35.011719 23.054688 34.90625 23.144531 L 30.984375 26.535156 L 30.984375 33.25 C 30.984375 33.433594 30.917969 33.601562 30.8125 33.695312 L 22.621094 40.765625 C 22.605469 40.78125 22.582031 40.792969 22.5625 40.800781 C 22.554688 40.804688 22.546875 40.8125 22.539062 40.816406 C 22.484375 40.839844 22.421875 40.839844 22.363281 40.816406 C 22.355469 40.8125 22.347656 40.804688 22.339844 40.800781 C 22.320312 40.789062 22.300781 40.78125 22.28125 40.765625 L 14.09375 33.695312 C 13.988281 33.601562 13.921875 33.433594 13.921875 33.25 L 13.921875 12.214844 C 13.921875 12.167969 13.925781 12.125 13.933594 12.082031 C 13.9375 12.066406 13.941406 12.050781 13.945312 12.039062 C 13.953125 12.011719 13.957031 11.984375 13.96875 11.957031 C 13.976562 11.941406 13.984375 11.929688 13.992188 11.914062 C 14 11.890625 14.011719 11.871094 14.023438 11.851562 C 14.03125 11.839844 14.042969 11.828125 14.054688 11.816406 C 14.066406 11.800781 14.078125 11.78125 14.09375 11.769531 L 18.1875 8.234375 C 18.292969 8.144531 18.421875 8.144531 18.527344 8.234375 L 22.621094 11.769531 L 22.625 11.769531 C 22.636719 11.785156 22.648438 11.800781 22.660156 11.8125 C 22.671875 11.828125 22.683594 11.839844 22.695312 11.851562 C 22.707031 11.871094 22.714844 11.890625 22.726562 11.914062 C 22.730469 11.929688 22.742188 11.941406 22.75 11.957031 C 22.757812 11.984375 22.761719 12.011719 22.769531 12.039062 C 22.773438 12.050781 22.78125 12.066406 22.78125 12.082031 C 22.789062 12.125 22.792969 12.167969 22.792969 12.214844 L 22.792969 25.351562 L 26.207031 22.40625 L 26.207031 15.691406 C 26.207031 15.644531 26.210938 15.597656 26.21875 15.558594 C 26.222656 15.542969 26.226562 15.527344 26.230469 15.511719 C 26.238281 15.488281 26.242188 15.457031 26.25 15.433594 C 26.257812 15.417969 26.269531 15.402344 26.273438 15.386719 C 26.285156 15.367188 26.292969 15.347656 26.304688 15.328125 C 26.316406 15.316406 26.328125 15.304688 26.339844 15.289062 C 26.351562 15.277344 26.363281 15.257812 26.375 15.246094 L 30.472656 11.710938 C 30.578125 11.621094 30.707031 11.621094 30.8125 11.710938 L 34.90625 15.246094 C 34.921875 15.257812 34.933594 15.277344 34.945312 15.289062 C 34.957031 15.304688 34.96875 15.316406 34.976562 15.328125 C 34.988281 15.347656 35 15.367188 35.007812 15.386719 C 35.015625 15.402344 35.023438 15.417969 35.03125 15.433594 C 35.042969 15.457031 35.046875 15.488281 35.054688 15.511719 C 35.058594 15.527344 35.0625 15.542969 35.066406 15.558594 Z M 34.394531 22.40625 L 34.394531 16.574219 L 32.960938 17.8125 L 30.984375 19.523438 L 30.984375 25.351562 Z M 30.300781 32.953125 L 30.300781 27.121094 L 28.355469 28.789062 L 22.792969 33.546875 L 22.792969 39.4375 Z M 14.605469 13.097656 L 14.605469 32.953125 L 22.109375 39.4375 L 22.109375 33.546875 L 18.191406 30.21875 L 18.1875 30.21875 L 18.1875 30.214844 C 18.171875 30.203125 18.164062 30.1875 18.148438 30.175781 C 18.140625 30.160156 18.128906 30.152344 18.117188 30.136719 C 18.105469 30.117188 18.097656 30.097656 18.089844 30.082031 C 18.082031 30.0625 18.070312 30.050781 18.0625 30.03125 C 18.054688 30.011719 18.050781 29.988281 18.046875 29.964844 C 18.039062 29.945312 18.03125 29.929688 18.027344 29.910156 L 18.027344 29.90625 C 18.023438 29.882812 18.023438 29.859375 18.023438 29.832031 C 18.019531 29.8125 18.015625 29.792969 18.015625 29.773438 L 18.015625 16.046875 L 16.039062 14.335938 L 14.605469 13.101562 Z M 18.359375 9.269531 L 14.949219 12.214844 L 18.359375 15.160156 L 21.769531 12.214844 Z M 20.132812 27.652344 L 22.113281 25.941406 L 22.113281 13.097656 L 20.679688 14.335938 L 18.699219 16.046875 L 18.699219 28.890625 Z M 30.640625 12.746094 L 27.230469 15.691406 L 30.640625 18.636719 L 34.050781 15.691406 Z M 30.300781 19.523438 L 28.320312 17.8125 L 26.886719 16.574219 L 26.886719 22.40625 L 28.867188 24.113281 L 30.300781 25.351562 Z M 22.453125 32.660156 L 27.453125 28.378906 L 29.957031 26.238281 L 26.546875 23.292969 L 22.625 26.683594 L 19.046875 29.769531 Z M 22.453125 32.660156 "/>
</g>
</svg>
