<?xml version="1.0" encoding="UTF-8"?>
<svg xmlns="http://www.w3.org/2000/svg" xmlns:xlink="http://www.w3.org/1999/xlink" width="48px" height="49px" viewBox="0 0 48 49" version="1.1">
<g id="surface1">
<path style=" stroke:none;fill-rule:nonzero;fill:rgb(38.039216%,85.490197%,98.431373%);fill-opacity:1;" d="M 35.976562 24.503906 C 35.976562 22.074219 33.992188 19.769531 30.945312 18.34375 C 31.648438 13.585938 31.335938 9.804688 29.957031 8.59375 C 29.640625 8.308594 29.269531 8.175781 28.863281 8.175781 L 28.863281 9.839844 C 29.089844 9.839844 29.269531 9.910156 29.421875 10.035156 C 30.085938 10.617188 30.371094 12.839844 30.148438 15.695312 C 30.09375 16.398438 30.007812 17.140625 29.898438 17.894531 C 28.941406 17.535156 27.898438 17.257812 26.796875 17.078125 C 26.140625 15.695312 25.457031 14.441406 24.765625 13.339844 C 26.359375 11.074219 27.851562 9.835938 28.867188 9.835938 L 28.867188 8.167969 C 27.527344 8.167969 25.769531 9.632812 23.988281 12.175781 C 22.210938 9.648438 20.453125 8.195312 19.113281 8.195312 L 19.113281 9.863281 C 20.121094 9.863281 21.621094 11.097656 23.214844 13.347656 C 22.53125 14.449219 21.847656 15.695312 21.195312 17.078125 C 20.09375 17.257812 19.046875 17.535156 18.089844 17.902344 C 17.980469 17.152344 17.894531 16.429688 17.835938 15.734375 C 17.609375 12.878906 17.890625 10.65625 18.550781 10.066406 C 18.695312 9.929688 18.886719 9.871094 19.113281 9.871094 L 19.113281 8.203125 C 18.703125 8.203125 18.332031 8.339844 18.007812 8.621094 C 16.636719 9.835938 16.328125 13.609375 17.035156 18.351562 C 14 19.785156 12.023438 22.082031 12.023438 24.503906 C 12.023438 26.933594 14.007812 29.238281 17.054688 30.664062 C 16.351562 35.421875 16.664062 39.203125 18.042969 40.414062 C 18.359375 40.699219 18.730469 40.832031 19.140625 40.832031 C 20.484375 40.832031 22.242188 39.367188 24.019531 36.824219 C 25.796875 39.351562 27.554688 40.804688 28.898438 40.804688 C 29.308594 40.804688 29.679688 40.667969 30 40.382812 C 31.375 39.171875 31.679688 35.398438 30.972656 30.65625 C 34 29.230469 35.976562 26.925781 35.976562 24.503906 Z M 29.621094 19.515625 C 29.441406 20.480469 29.214844 21.476562 28.960938 22.46875 C 28.761719 21.871094 28.550781 21.273438 28.320312 20.675781 C 28.097656 20.078125 27.859375 19.496094 27.617188 18.925781 C 28.3125 19.082031 28.980469 19.277344 29.621094 19.515625 Z M 27.382812 27.480469 C 27.003906 28.488281 26.613281 29.445312 26.207031 30.335938 C 25.480469 30.433594 24.742188 30.484375 24 30.484375 C 23.261719 30.484375 22.523438 30.433594 21.800781 30.34375 C 21.398438 29.453125 21 28.503906 20.621094 27.503906 C 20.25 26.523438 19.914062 25.527344 19.605469 24.527344 C 19.90625 23.523438 20.25 22.523438 20.617188 21.542969 C 20.996094 20.535156 21.386719 19.578125 21.792969 18.6875 C 22.519531 18.589844 23.257812 18.539062 24 18.539062 C 24.738281 18.539062 25.476562 18.589844 26.199219 18.679688 C 26.601562 19.570312 27 20.519531 27.378906 21.519531 C 27.75 22.5 28.085938 23.496094 28.394531 24.496094 C 28.085938 25.5 27.75 26.5 27.382812 27.480469 Z M 28.960938 26.507812 C 29.226562 27.507812 29.449219 28.511719 29.636719 29.484375 C 28.996094 29.722656 28.320312 29.925781 27.625 30.082031 C 27.863281 29.503906 28.101562 28.914062 28.328125 28.308594 C 28.550781 27.710938 28.761719 27.105469 28.960938 26.507812 Z M 24.007812 34.484375 C 23.554688 33.769531 23.101562 32.96875 22.652344 32.09375 C 23.089844 32.121094 23.539062 32.144531 23.996094 32.144531 C 24.453125 32.144531 24.910156 32.128906 25.351562 32.09375 C 24.914062 32.96875 24.460938 33.769531 24.007812 34.484375 Z M 20.375 30.082031 C 19.683594 29.925781 19.015625 29.730469 18.375 29.492188 C 18.554688 28.527344 18.78125 27.53125 19.035156 26.539062 C 19.234375 27.136719 19.445312 27.734375 19.671875 28.332031 C 19.902344 28.929688 20.136719 29.511719 20.375 30.082031 Z M 23.984375 14.523438 C 24.441406 15.238281 24.894531 16.039062 25.34375 16.914062 C 24.902344 16.882812 24.453125 16.863281 24 16.863281 C 23.539062 16.863281 23.085938 16.878906 22.640625 16.914062 C 23.082031 16.039062 23.535156 15.238281 23.984375 14.523438 Z M 20.371094 18.925781 C 20.132812 19.5 19.894531 20.09375 19.667969 20.699219 C 19.445312 21.296875 19.234375 21.894531 19.035156 22.492188 C 18.769531 21.492188 18.546875 20.488281 18.359375 19.515625 C 19 19.285156 19.671875 19.082031 20.371094 18.925781 Z M 15.953125 28.285156 C 14.222656 27.15625 13.105469 25.675781 13.105469 24.503906 C 13.105469 23.328125 14.222656 21.84375 15.953125 20.71875 C 16.371094 20.445312 16.832031 20.195312 17.304688 19.964844 C 17.582031 21.429688 17.949219 22.957031 18.402344 24.519531 C 17.953125 26.074219 17.59375 27.589844 17.320312 29.050781 C 16.835938 28.816406 16.378906 28.5625 15.953125 28.285156 Z M 18.578125 38.972656 C 17.914062 38.386719 17.628906 36.167969 17.851562 33.3125 C 17.90625 32.609375 17.992188 31.867188 18.101562 31.113281 C 19.058594 31.472656 20.101562 31.75 21.203125 31.929688 C 21.859375 33.3125 22.542969 34.566406 23.234375 35.667969 C 21.640625 37.933594 20.148438 39.171875 19.132812 39.171875 C 18.910156 39.164062 18.726562 39.097656 18.578125 38.972656 Z M 30.164062 33.273438 C 30.390625 36.128906 30.109375 38.351562 29.449219 38.941406 C 29.304688 39.078125 29.113281 39.136719 28.886719 39.136719 C 27.878906 39.136719 26.378906 37.902344 24.785156 35.652344 C 25.46875 34.550781 26.152344 33.304688 26.804688 31.921875 C 27.90625 31.742188 28.953125 31.464844 29.910156 31.097656 C 30.019531 31.855469 30.109375 32.578125 30.164062 33.273438 Z M 32.042969 28.285156 C 31.621094 28.5625 31.164062 28.808594 30.691406 29.042969 C 30.410156 27.578125 30.046875 26.050781 29.589844 24.488281 C 30.039062 22.933594 30.402344 21.414062 30.675781 19.957031 C 31.160156 20.191406 31.617188 20.445312 32.046875 20.71875 C 33.777344 21.847656 34.894531 23.328125 34.894531 24.503906 C 34.890625 25.675781 33.769531 27.164062 32.042969 28.285156 Z M 32.042969 28.285156 "/>
<path style=" stroke:none;fill-rule:nonzero;fill:rgb(38.039216%,85.490197%,98.431373%);fill-opacity:1;" d="M 26.226562 24.503906 C 26.226562 22.617188 25.226562 21.085938 23.996094 21.085938 C 22.761719 21.085938 21.761719 22.617188 21.761719 24.503906 C 21.761719 26.390625 22.761719 27.921875 23.996094 27.921875 C 25.226562 27.921875 26.226562 26.390625 26.226562 24.503906 Z M 26.226562 24.503906 "/>
</g>
</svg>
