<?xml version="1.0" encoding="UTF-8"?>
<svg xmlns="http://www.w3.org/2000/svg" xmlns:xlink="http://www.w3.org/1999/xlink" width="49px" height="49px" viewBox="0 0 49 49" version="1.1">
<defs>
<linearGradient id="linear0" gradientUnits="userSpaceOnUse" x1="63.815899" y1="56.682899" x2="118.493401" y2="1.8225" gradientTransform="matrix(0.445455,0,0,-0.445455,-23.835115,29.62678)">
<stop offset="0" style="stop-color:rgb(21.960784%,49.411765%,72.156863%);stop-opacity:1;"/>
<stop offset="1" style="stop-color:rgb(21.176471%,41.176471%,58.039216%);stop-opacity:1;"/>
</linearGradient>
<linearGradient id="linear1" gradientUnits="userSpaceOnUse" x1="97.044403" y1="21.632099" x2="155.666504" y2="-34.5308" gradientTransform="matrix(0.445455,0,0,-0.445455,-23.835115,29.62678)">
<stop offset="0" style="stop-color:rgb(100%,87.843137%,32.156863%);stop-opacity:1;"/>
<stop offset="1" style="stop-color:rgb(100%,76.470588%,19.215686%);stop-opacity:1;"/>
</linearGradient>
</defs>
<g id="surface1">
<path style=" stroke:none;fill-rule:nonzero;fill:url(#linear0);" d="M 24.417969 0 C 12.847656 0 12.722656 4.492188 12.722656 5.414062 C 12.722656 6.816406 12.722656 11.023438 12.722656 11.023438 L 24.640625 11.023438 L 24.640625 12.710938 C 24.640625 12.710938 12.234375 12.710938 7.992188 12.710938 C 4.449219 12.710938 0 14.863281 0 24.402344 C 0 33.164062 3.472656 36.554688 6.972656 36.554688 C 8.015625 36.554688 11.136719 36.554688 11.136719 36.554688 C 11.136719 36.554688 11.136719 32.203125 11.136719 30.707031 C 11.136719 28.261719 12.347656 23.734375 18 23.734375 C 25.085938 23.734375 26.894531 23.734375 29.816406 23.734375 C 31.554688 23.734375 36.457031 22.980469 36.457031 17.316406 C 36.457031 11.324219 36.457031 9.347656 36.457031 6.527344 C 36.457031 5.125 36.21875 0 24.417969 0 Z M 17.847656 3.773438 C 19.03125 3.773438 19.988281 4.730469 19.988281 5.917969 C 19.988281 7.101562 19.03125 8.058594 17.847656 8.058594 C 16.660156 8.058594 15.703125 7.101562 15.703125 5.917969 C 15.703125 4.730469 16.660156 3.773438 17.847656 3.773438 Z M 17.847656 3.773438 "/>
<path style=" stroke:none;fill-rule:nonzero;fill:url(#linear1);" d="M 24.582031 49 C 36.148438 49 36.289062 44.425781 36.289062 43.585938 C 36.289062 42.183594 36.289062 37.976562 36.289062 37.976562 L 24.359375 37.976562 L 24.359375 36.289062 C 24.359375 36.289062 36.847656 36.289062 41.007812 36.289062 C 44.578125 36.289062 49 34.082031 49 24.597656 C 49 14.207031 44.304688 12.445312 42.027344 12.445312 C 40.984375 12.445312 37.863281 12.445312 37.863281 12.445312 C 37.863281 12.445312 37.863281 16.996094 37.863281 18.292969 C 37.863281 20.738281 36.691406 25.265625 31 25.265625 C 23.914062 25.265625 22.324219 25.265625 19.183594 25.265625 C 17.449219 25.265625 12.542969 26.109375 12.542969 31.683594 C 12.542969 38.132812 12.542969 39.820312 12.542969 42.472656 C 12.542969 44.800781 13.964844 49 24.582031 49 Z M 31.152344 45.226562 C 29.96875 45.226562 29.011719 44.269531 29.011719 43.082031 C 29.011719 41.898438 29.96875 40.941406 31.152344 40.941406 C 32.339844 40.941406 33.296875 41.898438 33.296875 43.082031 C 33.296875 44.269531 32.339844 45.226562 31.152344 45.226562 Z M 31.152344 45.226562 "/>
</g>
</svg>
